<svg width="415" height="53" viewBox="0 0 415 53" fill="none" xmlns="http://www.w3.org/2000/svg">
<mask id="path-1-outside-1_491_1180" maskUnits="userSpaceOnUse" x="0.191895" y="0.959961" width="414" height="52" fill="black">
<rect fill="white" x="0.191895" y="0.959961" width="414" height="52"/>
<path d="M1.19189 51.96V11.335C1.19189 9.622 1.60599 8.04792 2.43419 6.61274C3.26239 5.17755 4.38966 4.04329 5.81599 3.20996C7.24233 2.37663 8.80671 1.95996 10.5091 1.95996H41.5665C43.2689 1.95996 44.8103 2.37663 46.1906 3.20996C47.6169 4.04329 48.7442 5.17755 49.5724 6.61274C50.4466 8.04792 50.8837 9.622 50.8837 11.335V51.96H42.5327V34.8072H9.47386V51.96H1.19189ZM9.47386 26.4738H42.5327V11.6127C42.5327 11.2424 42.3947 10.9414 42.1186 10.71C41.8886 10.4785 41.6125 10.3627 41.2904 10.3627H10.7162C10.3941 10.3627 10.095 10.4785 9.81895 10.71C9.58889 10.9414 9.47386 11.2424 9.47386 11.6127V26.4738ZM58.9543 51.96V1.95996H97.3275C99.0299 1.95996 100.571 2.37663 101.952 3.20996C103.378 4.04329 104.505 5.17755 105.333 6.61274C106.208 8.04792 106.645 9.622 106.645 11.335V21.2655C106.645 21.9137 106.576 22.5387 106.438 23.1405C106.346 23.6961 106.185 24.2285 105.955 24.7377C106.783 25.8951 107.427 27.0526 107.887 28.21C108.393 29.3211 108.646 30.4553 108.646 31.6127V42.585C108.646 44.2979 108.209 45.872 107.335 47.3072C106.507 48.7424 105.379 49.8766 103.953 50.71C102.573 51.5433 101.031 51.96 99.3289 51.96H58.9543ZM68.4786 43.5572H99.0529C99.3749 43.5572 99.651 43.4414 99.8811 43.21C100.157 42.9785 100.295 42.6776 100.295 42.3072V31.96C100.295 31.5896 100.157 31.2887 99.8811 31.0572C99.651 30.8257 99.3749 30.71 99.0529 30.71H68.4786C68.1565 30.71 67.8574 30.8257 67.5814 31.0572C67.3513 31.2887 67.2363 31.5896 67.2363 31.96V42.3072C67.2363 42.6776 67.3513 42.9785 67.5814 43.21C67.8574 43.4414 68.1565 43.5572 68.4786 43.5572ZM68.4786 22.3072H96.9824C97.3505 22.3072 97.6495 22.1914 97.8796 21.96C98.1096 21.6822 98.2247 21.3813 98.2247 21.0572V11.6127C98.2247 11.2424 98.1096 10.9414 97.8796 10.71C97.6495 10.4785 97.3505 10.3627 96.9824 10.3627H68.4786C68.1565 10.3627 67.8574 10.4785 67.5814 10.71C67.3513 10.9414 67.2363 11.2424 67.2363 11.6127V21.0572C67.2363 21.3813 67.3513 21.6822 67.5814 21.96C67.8574 22.1914 68.1565 22.3072 68.4786 22.3072ZM125.35 51.96C123.648 51.96 122.084 51.5433 120.657 50.71C119.231 49.8766 118.104 48.7424 117.275 47.3072C116.447 45.872 116.033 44.2979 116.033 42.585V11.335C116.033 9.622 116.447 8.04792 117.275 6.61274C118.104 5.17755 119.231 4.04329 120.657 3.20996C122.084 2.37663 123.648 1.95996 125.35 1.95996H156.408C158.11 1.95996 159.651 2.37663 161.032 3.20996C162.458 4.04329 163.585 5.17755 164.414 6.61274C165.288 8.04792 165.725 9.622 165.725 11.335V42.585C165.725 44.2979 165.288 45.872 164.414 47.3072C163.585 48.7424 162.458 49.8766 161.032 50.71C159.651 51.5433 158.11 51.96 156.408 51.96H125.35ZM125.557 43.5572H156.132C156.454 43.5572 156.73 43.4414 156.96 43.21C157.236 42.9785 157.374 42.6776 157.374 42.3072V11.6127C157.374 11.2424 157.236 10.9414 156.96 10.71C156.73 10.4785 156.454 10.3627 156.132 10.3627H125.557C125.235 10.3627 124.936 10.4785 124.66 10.71C124.43 10.9414 124.315 11.2424 124.315 11.6127V42.3072C124.315 42.6776 124.43 42.9785 124.66 43.21C124.936 43.4414 125.235 43.5572 125.557 43.5572ZM182.505 51.96C180.802 51.96 179.238 51.5433 177.811 50.71C176.385 49.8766 175.258 48.7424 174.43 47.3072C173.601 45.872 173.187 44.2979 173.187 42.585V1.95996H181.469V42.3072C181.469 42.6776 181.584 42.9785 181.814 43.21C182.09 43.4414 182.389 43.5572 182.712 43.5572H213.286C213.608 43.5572 213.884 43.4414 214.114 43.21C214.39 42.9785 214.528 42.6776 214.528 42.3072V1.95996H222.879V42.585C222.879 44.2979 222.442 45.872 221.568 47.3072C220.74 48.7424 219.612 49.8766 218.186 50.71C216.806 51.5433 215.264 51.96 213.562 51.96H182.505ZM248.7 51.96V10.3627H227.995V1.95996H277.687V10.3627H256.982V51.96H248.7ZM303.405 51.96V1.95996H312.86L331.495 24.3211L350.06 1.95996H359.584V51.96H351.233V13.6266L331.495 37.3072L311.687 13.6961V51.96H303.405ZM367.572 51.96V1.95996H413.192V10.3627H375.923V22.7933H405.945V31.1266H375.923V43.5572H413.192V51.96H367.572Z"/>
</mask>
<path d="M1.19189 51.96V11.335C1.19189 9.622 1.60599 8.04792 2.43419 6.61274C3.26239 5.17755 4.38966 4.04329 5.81599 3.20996C7.24233 2.37663 8.80671 1.95996 10.5091 1.95996H41.5665C43.2689 1.95996 44.8103 2.37663 46.1906 3.20996C47.6169 4.04329 48.7442 5.17755 49.5724 6.61274C50.4466 8.04792 50.8837 9.622 50.8837 11.335V51.96H42.5327V34.8072H9.47386V51.96H1.19189ZM9.47386 26.4738H42.5327V11.6127C42.5327 11.2424 42.3947 10.9414 42.1186 10.71C41.8886 10.4785 41.6125 10.3627 41.2904 10.3627H10.7162C10.3941 10.3627 10.095 10.4785 9.81895 10.71C9.58889 10.9414 9.47386 11.2424 9.47386 11.6127V26.4738ZM58.9543 51.96V1.95996H97.3275C99.0299 1.95996 100.571 2.37663 101.952 3.20996C103.378 4.04329 104.505 5.17755 105.333 6.61274C106.208 8.04792 106.645 9.622 106.645 11.335V21.2655C106.645 21.9137 106.576 22.5387 106.438 23.1405C106.346 23.6961 106.185 24.2285 105.955 24.7377C106.783 25.8951 107.427 27.0526 107.887 28.21C108.393 29.3211 108.646 30.4553 108.646 31.6127V42.585C108.646 44.2979 108.209 45.872 107.335 47.3072C106.507 48.7424 105.379 49.8766 103.953 50.71C102.573 51.5433 101.031 51.96 99.3289 51.96H58.9543ZM68.4786 43.5572H99.0529C99.3749 43.5572 99.651 43.4414 99.8811 43.21C100.157 42.9785 100.295 42.6776 100.295 42.3072V31.96C100.295 31.5896 100.157 31.2887 99.8811 31.0572C99.651 30.8257 99.3749 30.71 99.0529 30.71H68.4786C68.1565 30.71 67.8574 30.8257 67.5814 31.0572C67.3513 31.2887 67.2363 31.5896 67.2363 31.96V42.3072C67.2363 42.6776 67.3513 42.9785 67.5814 43.21C67.8574 43.4414 68.1565 43.5572 68.4786 43.5572ZM68.4786 22.3072H96.9824C97.3505 22.3072 97.6495 22.1914 97.8796 21.96C98.1096 21.6822 98.2247 21.3813 98.2247 21.0572V11.6127C98.2247 11.2424 98.1096 10.9414 97.8796 10.71C97.6495 10.4785 97.3505 10.3627 96.9824 10.3627H68.4786C68.1565 10.3627 67.8574 10.4785 67.5814 10.71C67.3513 10.9414 67.2363 11.2424 67.2363 11.6127V21.0572C67.2363 21.3813 67.3513 21.6822 67.5814 21.96C67.8574 22.1914 68.1565 22.3072 68.4786 22.3072ZM125.35 51.96C123.648 51.96 122.084 51.5433 120.657 50.71C119.231 49.8766 118.104 48.7424 117.275 47.3072C116.447 45.872 116.033 44.2979 116.033 42.585V11.335C116.033 9.622 116.447 8.04792 117.275 6.61274C118.104 5.17755 119.231 4.04329 120.657 3.20996C122.084 2.37663 123.648 1.95996 125.35 1.95996H156.408C158.11 1.95996 159.651 2.37663 161.032 3.20996C162.458 4.04329 163.585 5.17755 164.414 6.61274C165.288 8.04792 165.725 9.622 165.725 11.335V42.585C165.725 44.2979 165.288 45.872 164.414 47.3072C163.585 48.7424 162.458 49.8766 161.032 50.71C159.651 51.5433 158.11 51.96 156.408 51.96H125.35ZM125.557 43.5572H156.132C156.454 43.5572 156.73 43.4414 156.96 43.21C157.236 42.9785 157.374 42.6776 157.374 42.3072V11.6127C157.374 11.2424 157.236 10.9414 156.96 10.71C156.73 10.4785 156.454 10.3627 156.132 10.3627H125.557C125.235 10.3627 124.936 10.4785 124.66 10.71C124.43 10.9414 124.315 11.2424 124.315 11.6127V42.3072C124.315 42.6776 124.43 42.9785 124.66 43.21C124.936 43.4414 125.235 43.5572 125.557 43.5572ZM182.505 51.96C180.802 51.96 179.238 51.5433 177.811 50.71C176.385 49.8766 175.258 48.7424 174.43 47.3072C173.601 45.872 173.187 44.2979 173.187 42.585V1.95996H181.469V42.3072C181.469 42.6776 181.584 42.9785 181.814 43.21C182.09 43.4414 182.389 43.5572 182.712 43.5572H213.286C213.608 43.5572 213.884 43.4414 214.114 43.21C214.39 42.9785 214.528 42.6776 214.528 42.3072V1.95996H222.879V42.585C222.879 44.2979 222.442 45.872 221.568 47.3072C220.74 48.7424 219.612 49.8766 218.186 50.71C216.806 51.5433 215.264 51.96 213.562 51.96H182.505ZM248.7 51.96V10.3627H227.995V1.95996H277.687V10.3627H256.982V51.96H248.7ZM303.405 51.96V1.95996H312.86L331.495 24.3211L350.06 1.95996H359.584V51.96H351.233V13.6266L331.495 37.3072L311.687 13.6961V51.96H303.405ZM367.572 51.96V1.95996H413.192V10.3627H375.923V22.7933H405.945V31.1266H375.923V43.5572H413.192V51.96H367.572Z" stroke="#2555F5" stroke-width="2" mask="url(#path-1-outside-1_491_1180)"/>
</svg>
