<svg width="436" height="53" viewBox="0 0 436 53" fill="none" xmlns="http://www.w3.org/2000/svg">
<mask id="path-1-outside-1_491_1179" maskUnits="userSpaceOnUse" x="0.0922852" y="0.959961" width="436" height="52" fill="black">
<rect fill="white" x="0.0922852" y="0.959961" width="436" height="52"/>
<path d="M1.09229 51.96V2.0294H41.3836C43.0825 2.0294 44.6207 2.46922 45.9981 3.34885C47.4215 4.18218 48.5465 5.31644 49.373 6.75163C50.2454 8.14051 50.6816 9.69144 50.6816 11.4044V25.1544C50.6816 26.8211 50.2454 28.372 49.373 29.8072C48.5465 31.2424 47.4215 32.3766 45.9981 33.21C44.6207 34.0433 43.0825 34.46 41.3836 34.46L9.35716 34.5294V51.96H1.09229ZM10.5969 26.0572H41.1081C41.4295 26.0572 41.705 25.9414 41.9346 25.71C42.2101 25.4785 42.3478 25.1776 42.3478 24.8072V11.6127C42.3478 11.2887 42.2101 11.0109 41.9346 10.7794C41.705 10.5016 41.4295 10.3627 41.1081 10.3627H10.5969C10.2755 10.3627 9.97703 10.5016 9.70154 10.7794C9.47196 11.0109 9.35716 11.2887 9.35716 11.6127V24.8072C9.35716 25.1776 9.47196 25.4785 9.70154 25.71C9.97703 25.9414 10.2755 26.0572 10.5969 26.0572ZM95.6574 51.96L80.4362 33.6266H91.2494L104.955 50.0155V51.96H95.6574ZM55.5727 51.96V2.0294H95.864C97.5629 2.0294 99.1011 2.46922 100.479 3.34885C101.902 4.18218 103.027 5.31644 103.853 6.75163C104.726 8.14051 105.162 9.69144 105.162 11.4044V25.1544C105.162 26.8211 104.726 28.372 103.853 29.8072C103.027 31.2424 101.902 32.3766 100.479 33.21C99.1011 34.0433 97.5629 34.46 95.864 34.46L63.8376 34.5294V51.96H55.5727ZM65.0773 26.0572H95.5885C95.9099 26.0572 96.1854 25.9414 96.415 25.71C96.6905 25.4785 96.8282 25.1776 96.8282 24.8072V11.6127C96.8282 11.2887 96.6905 11.0109 96.415 10.7794C96.1854 10.5016 95.9099 10.3627 95.5885 10.3627H65.0773C64.7559 10.3627 64.4574 10.5016 64.1819 10.7794C63.9524 11.0109 63.8376 11.2887 63.8376 11.6127V24.8072C63.8376 25.1776 63.9524 25.4785 64.1819 25.71C64.4574 25.9414 64.7559 26.0572 65.0773 26.0572ZM121.567 51.96C119.869 51.96 118.307 51.5433 116.884 50.71C115.461 49.8766 114.336 48.7424 113.509 47.3072C112.683 45.872 112.269 44.2979 112.269 42.585V11.335C112.269 9.622 112.683 8.04792 113.509 6.61274C114.336 5.17755 115.461 4.04329 116.884 3.20996C118.307 2.37663 119.869 1.95996 121.567 1.95996H152.561C154.26 1.95996 155.798 2.37663 157.175 3.20996C158.599 4.04329 159.724 5.17755 160.55 6.61274C161.423 8.04792 161.859 9.622 161.859 11.335V42.585C161.859 44.2979 161.423 45.872 160.55 47.3072C159.724 48.7424 158.599 49.8766 157.175 50.71C155.798 51.5433 154.26 51.96 152.561 51.96H121.567ZM121.774 43.5572H152.285C152.607 43.5572 152.882 43.4414 153.112 43.21C153.387 42.9785 153.525 42.6776 153.525 42.3072V11.6127C153.525 11.2424 153.387 10.9414 153.112 10.71C152.882 10.4785 152.607 10.3627 152.285 10.3627H121.774C121.453 10.3627 121.154 10.4785 120.879 10.71C120.649 10.9414 120.534 11.2424 120.534 11.6127V42.3072C120.534 42.6776 120.649 42.9785 120.879 43.21C121.154 43.4414 121.453 43.5572 121.774 43.5572ZM175.16 51.96C173.461 51.96 171.9 51.5433 170.477 50.71C169.053 49.8766 167.928 48.7424 167.102 47.3072C166.275 45.872 165.862 44.2979 165.862 42.585V37.3072H174.127V42.3072C174.127 42.6776 174.242 42.9785 174.471 43.21C174.747 43.4414 175.045 43.5572 175.367 43.5572H205.878C206.199 43.5572 206.475 43.4414 206.704 43.21C206.98 42.9785 207.118 42.6776 207.118 42.3072V1.95996H215.451V42.585C215.451 44.2979 215.015 45.872 214.143 47.3072C213.316 48.7424 212.191 49.8766 210.768 50.71C209.39 51.5433 207.852 51.96 206.153 51.96H175.16ZM223.322 51.96V1.95996H268.848V10.3627H231.656V22.7933H261.616V31.1266H231.656V43.5572H268.848V51.96H223.322ZM285.214 51.96C283.515 51.96 281.954 51.5433 280.53 50.71C279.107 49.8766 277.982 48.7424 277.155 47.3072C276.329 45.872 275.916 44.2979 275.916 42.585V11.335C275.916 9.622 276.329 8.04792 277.155 6.61274C277.982 5.17755 279.107 4.04329 280.53 3.20996C281.954 2.37663 283.515 1.95996 285.214 1.95996H325.367V10.3627H286.66C285.925 10.3627 285.329 10.5942 284.869 11.0572C284.41 11.4738 284.181 12.0526 284.181 12.7933V41.1266C284.181 41.8674 284.41 42.4692 284.869 42.9322C285.329 43.3488 285.925 43.5572 286.66 43.5572H325.367V51.96H285.214ZM350.731 51.96V10.3627H330.069V1.95996H379.658V10.3627H358.996V51.96H350.731ZM393.832 51.96C392.133 51.96 390.572 51.5433 389.148 50.71C387.771 49.8766 386.669 48.7424 385.842 47.3072C385.016 45.872 384.603 44.2979 384.603 42.585V39.2516H392.867V42.3072C392.867 42.6776 392.982 42.9785 393.212 43.21C393.441 43.4414 393.74 43.5572 394.107 43.5572H424.55C424.917 43.5572 425.215 43.4414 425.445 43.21C425.72 42.9785 425.858 42.6776 425.858 42.3072V32.3766C425.858 32.0526 425.72 31.7748 425.445 31.5433C425.215 31.2655 424.917 31.1266 424.55 31.1266H393.832C392.133 31.1266 390.572 30.71 389.148 29.8766C387.771 29.0433 386.669 27.9322 385.842 26.5433C385.016 25.1081 384.603 23.534 384.603 21.8211V11.335C384.603 9.622 385.016 8.04792 385.842 6.61274C386.669 5.17755 387.771 4.04329 389.148 3.20996C390.572 2.37663 392.133 1.95996 393.832 1.95996H424.894C426.593 1.95996 428.131 2.37663 429.509 3.20996C430.932 4.04329 432.057 5.17755 432.883 6.61274C433.756 8.04792 434.192 9.622 434.192 11.335V14.6683H425.858V11.6127C425.858 11.2424 425.72 10.9414 425.445 10.71C425.215 10.4785 424.917 10.3627 424.55 10.3627H394.107C393.74 10.3627 393.441 10.4785 393.212 10.71C392.982 10.9414 392.867 11.2424 392.867 11.6127V21.5433C392.867 21.8674 392.982 22.1683 393.212 22.4461C393.441 22.6776 393.74 22.7933 394.107 22.7933H424.894C426.593 22.7933 428.131 23.21 429.509 24.0433C430.932 24.8766 432.057 26.0109 432.883 27.4461C433.756 28.835 434.192 30.3859 434.192 32.0989V42.585C434.192 44.2979 433.756 45.872 432.883 47.3072C432.057 48.7424 430.932 49.8766 429.509 50.71C428.131 51.5433 426.593 51.96 424.894 51.96H393.832Z"/>
</mask>
<path d="M1.09229 51.96V2.0294H41.3836C43.0825 2.0294 44.6207 2.46922 45.9981 3.34885C47.4215 4.18218 48.5465 5.31644 49.373 6.75163C50.2454 8.14051 50.6816 9.69144 50.6816 11.4044V25.1544C50.6816 26.8211 50.2454 28.372 49.373 29.8072C48.5465 31.2424 47.4215 32.3766 45.9981 33.21C44.6207 34.0433 43.0825 34.46 41.3836 34.46L9.35716 34.5294V51.96H1.09229ZM10.5969 26.0572H41.1081C41.4295 26.0572 41.705 25.9414 41.9346 25.71C42.2101 25.4785 42.3478 25.1776 42.3478 24.8072V11.6127C42.3478 11.2887 42.2101 11.0109 41.9346 10.7794C41.705 10.5016 41.4295 10.3627 41.1081 10.3627H10.5969C10.2755 10.3627 9.97703 10.5016 9.70154 10.7794C9.47196 11.0109 9.35716 11.2887 9.35716 11.6127V24.8072C9.35716 25.1776 9.47196 25.4785 9.70154 25.71C9.97703 25.9414 10.2755 26.0572 10.5969 26.0572ZM95.6574 51.96L80.4362 33.6266H91.2494L104.955 50.0155V51.96H95.6574ZM55.5727 51.96V2.0294H95.864C97.5629 2.0294 99.1011 2.46922 100.479 3.34885C101.902 4.18218 103.027 5.31644 103.853 6.75163C104.726 8.14051 105.162 9.69144 105.162 11.4044V25.1544C105.162 26.8211 104.726 28.372 103.853 29.8072C103.027 31.2424 101.902 32.3766 100.479 33.21C99.1011 34.0433 97.5629 34.46 95.864 34.46L63.8376 34.5294V51.96H55.5727ZM65.0773 26.0572H95.5885C95.9099 26.0572 96.1854 25.9414 96.415 25.71C96.6905 25.4785 96.8282 25.1776 96.8282 24.8072V11.6127C96.8282 11.2887 96.6905 11.0109 96.415 10.7794C96.1854 10.5016 95.9099 10.3627 95.5885 10.3627H65.0773C64.7559 10.3627 64.4574 10.5016 64.1819 10.7794C63.9524 11.0109 63.8376 11.2887 63.8376 11.6127V24.8072C63.8376 25.1776 63.9524 25.4785 64.1819 25.71C64.4574 25.9414 64.7559 26.0572 65.0773 26.0572ZM121.567 51.96C119.869 51.96 118.307 51.5433 116.884 50.71C115.461 49.8766 114.336 48.7424 113.509 47.3072C112.683 45.872 112.269 44.2979 112.269 42.585V11.335C112.269 9.622 112.683 8.04792 113.509 6.61274C114.336 5.17755 115.461 4.04329 116.884 3.20996C118.307 2.37663 119.869 1.95996 121.567 1.95996H152.561C154.26 1.95996 155.798 2.37663 157.175 3.20996C158.599 4.04329 159.724 5.17755 160.55 6.61274C161.423 8.04792 161.859 9.622 161.859 11.335V42.585C161.859 44.2979 161.423 45.872 160.55 47.3072C159.724 48.7424 158.599 49.8766 157.175 50.71C155.798 51.5433 154.26 51.96 152.561 51.96H121.567ZM121.774 43.5572H152.285C152.607 43.5572 152.882 43.4414 153.112 43.21C153.387 42.9785 153.525 42.6776 153.525 42.3072V11.6127C153.525 11.2424 153.387 10.9414 153.112 10.71C152.882 10.4785 152.607 10.3627 152.285 10.3627H121.774C121.453 10.3627 121.154 10.4785 120.879 10.71C120.649 10.9414 120.534 11.2424 120.534 11.6127V42.3072C120.534 42.6776 120.649 42.9785 120.879 43.21C121.154 43.4414 121.453 43.5572 121.774 43.5572ZM175.16 51.96C173.461 51.96 171.9 51.5433 170.477 50.71C169.053 49.8766 167.928 48.7424 167.102 47.3072C166.275 45.872 165.862 44.2979 165.862 42.585V37.3072H174.127V42.3072C174.127 42.6776 174.242 42.9785 174.471 43.21C174.747 43.4414 175.045 43.5572 175.367 43.5572H205.878C206.199 43.5572 206.475 43.4414 206.704 43.21C206.98 42.9785 207.118 42.6776 207.118 42.3072V1.95996H215.451V42.585C215.451 44.2979 215.015 45.872 214.143 47.3072C213.316 48.7424 212.191 49.8766 210.768 50.71C209.39 51.5433 207.852 51.96 206.153 51.96H175.16ZM223.322 51.96V1.95996H268.848V10.3627H231.656V22.7933H261.616V31.1266H231.656V43.5572H268.848V51.96H223.322ZM285.214 51.96C283.515 51.96 281.954 51.5433 280.53 50.71C279.107 49.8766 277.982 48.7424 277.155 47.3072C276.329 45.872 275.916 44.2979 275.916 42.585V11.335C275.916 9.622 276.329 8.04792 277.155 6.61274C277.982 5.17755 279.107 4.04329 280.53 3.20996C281.954 2.37663 283.515 1.95996 285.214 1.95996H325.367V10.3627H286.66C285.925 10.3627 285.329 10.5942 284.869 11.0572C284.41 11.4738 284.181 12.0526 284.181 12.7933V41.1266C284.181 41.8674 284.41 42.4692 284.869 42.9322C285.329 43.3488 285.925 43.5572 286.66 43.5572H325.367V51.96H285.214ZM350.731 51.96V10.3627H330.069V1.95996H379.658V10.3627H358.996V51.96H350.731ZM393.832 51.96C392.133 51.96 390.572 51.5433 389.148 50.71C387.771 49.8766 386.669 48.7424 385.842 47.3072C385.016 45.872 384.603 44.2979 384.603 42.585V39.2516H392.867V42.3072C392.867 42.6776 392.982 42.9785 393.212 43.21C393.441 43.4414 393.74 43.5572 394.107 43.5572H424.55C424.917 43.5572 425.215 43.4414 425.445 43.21C425.72 42.9785 425.858 42.6776 425.858 42.3072V32.3766C425.858 32.0526 425.72 31.7748 425.445 31.5433C425.215 31.2655 424.917 31.1266 424.55 31.1266H393.832C392.133 31.1266 390.572 30.71 389.148 29.8766C387.771 29.0433 386.669 27.9322 385.842 26.5433C385.016 25.1081 384.603 23.534 384.603 21.8211V11.335C384.603 9.622 385.016 8.04792 385.842 6.61274C386.669 5.17755 387.771 4.04329 389.148 3.20996C390.572 2.37663 392.133 1.95996 393.832 1.95996H424.894C426.593 1.95996 428.131 2.37663 429.509 3.20996C430.932 4.04329 432.057 5.17755 432.883 6.61274C433.756 8.04792 434.192 9.622 434.192 11.335V14.6683H425.858V11.6127C425.858 11.2424 425.72 10.9414 425.445 10.71C425.215 10.4785 424.917 10.3627 424.55 10.3627H394.107C393.74 10.3627 393.441 10.4785 393.212 10.71C392.982 10.9414 392.867 11.2424 392.867 11.6127V21.5433C392.867 21.8674 392.982 22.1683 393.212 22.4461C393.441 22.6776 393.74 22.7933 394.107 22.7933H424.894C426.593 22.7933 428.131 23.21 429.509 24.0433C430.932 24.8766 432.057 26.0109 432.883 27.4461C433.756 28.835 434.192 30.3859 434.192 32.0989V42.585C434.192 44.2979 433.756 45.872 432.883 47.3072C432.057 48.7424 430.932 49.8766 429.509 50.71C428.131 51.5433 426.593 51.96 424.894 51.96H393.832Z" stroke="#2555F5" stroke-width="2" mask="url(#path-1-outside-1_491_1179)"/>
</svg>
