<svg width="20" height="19" viewBox="0 0 20 19" fill="none" xmlns="http://www.w3.org/2000/svg">
<path d="M13.7017 16.7682L14.347 18.1095C14.5001 18.4278 14.9219 18.4994 15.1716 18.2496L18.7564 14.6627C19.0061 14.4128 18.9341 13.9912 18.6156 13.8384L17.2736 13.1943M13.7017 16.7682L10.5922 15.5552C10.4613 15.5042 10.3571 15.4017 10.304 15.2716L7.4061 8.1815C7.32804 7.99051 7.37214 7.77134 7.51801 7.62539L7.82075 7.32247M13.7017 16.7682L17.2736 13.1943M7.82075 7.32247L8.09904 7.04402C8.24437 6.89861 8.46253 6.85408 8.65323 6.93091L15.7725 9.79883C15.9035 9.85159 16.0069 9.95604 16.0583 10.0875L17.2736 13.1943M7.82075 7.32247L11.9908 11.4883M11.9908 11.4883C11.085 12.3947 11.6032 13.3781 11.914 13.6886C12.2248 13.9991 13.1829 14.387 14.037 13.5324C14.9173 12.6516 14.5027 11.7199 14.1919 11.4094C13.3216 10.54 12.3619 11.0998 11.9908 11.4883ZM5.30903 6.52103C5.9721 7.18343 6.70724 6.77932 6.99192 6.49447C7.28535 6.20087 7.70644 5.44808 7.04338 4.78568M5.30903 6.52103C4.64597 5.85863 5.0323 5.10608 5.30835 4.81261C5.61042 4.52763 6.38031 4.12328 7.04338 4.78568M5.30903 6.52103L2.07398 9.75796M5.30903 6.52103C4.55004 7.40131 3.39465 9.47234 3.62875 12.1902C3.85332 14.7975 5.28743 16.4174 5.54647 16.7452M2.07398 9.75796C1.81497 9.49921 1.45286 9.49899 1.19405 9.75796C0.935601 10.0166 0.935035 10.3797 1.19404 10.6384C1.45306 10.8972 1.78998 10.8708 2.04878 10.6118C2.28171 10.3788 2.33299 10.0167 2.07398 9.75796ZM5.54647 16.7452L5.18415 17.1078C4.98404 17.308 4.98417 17.6325 5.18443 17.8325L5.70245 18.35C5.90272 18.5501 6.22729 18.55 6.42739 18.3497L7.04852 17.7283C7.24863 17.528 7.2485 17.2035 7.04824 17.0035L6.53022 16.486C6.32995 16.2859 6.00538 16.286 5.80528 16.4863L5.54647 16.7452ZM7.04338 4.78568L10.2267 1.60054M7.04338 4.78568C7.79394 4.121 10.4947 2.72488 13.1789 3.20425C15.0675 3.54154 16.8559 4.5143 17.2444 5.04048M10.2267 1.60054C10.0885 1.44528 9.90023 1.04673 10.2522 0.694548C10.6042 0.34237 10.9857 0.547574 11.1325 0.694198C11.2793 0.823566 11.4796 1.17552 11.1069 1.54842C10.7343 1.92131 10.3648 1.73854 10.2267 1.60054ZM17.2444 5.04048L17.0115 5.27353C16.8114 5.47376 16.8115 5.79826 17.0118 5.99832L17.5298 6.51582C17.7301 6.71588 18.0546 6.71575 18.2548 6.51553L18.85 5.91993C19.0501 5.71971 19.05 5.39521 18.8497 5.19515L18.3317 4.67765C18.1314 4.47759 17.8069 4.47772 17.6068 4.67794L17.2444 5.04048Z" stroke="white"/>
</svg>
