<svg width="18" height="17" viewBox="0 0 18 17" fill="none" xmlns="http://www.w3.org/2000/svg">
<path d="M15.8148 8.2V14.8C15.8148 15.1183 15.6899 15.4235 15.4677 15.6485C15.2454 15.8736 14.944 16 14.6296 16H3.37037C3.05604 16 2.75458 15.8736 2.53232 15.6485C2.31005 15.4235 2.18519 15.1183 2.18519 14.8V8.2M8.7037 3.1C8.7037 2.68466 8.58206 2.27865 8.35416 1.9333C8.12626 1.58796 7.80233 1.3188 7.42334 1.15985C7.04436 1.00091 6.62733 0.959323 6.225 1.04035C5.82267 1.12138 5.4531 1.32139 5.16304 1.61508C4.87297 1.90877 4.67544 2.28295 4.59541 2.69031C4.51538 3.09767 4.55645 3.51991 4.71344 3.90364C4.87042 4.28736 5.13626 4.61534 5.47734 4.84609C5.81842 5.07684 6.21942 5.2 6.62963 5.2H8.7037M8.7037 3.1V5.2M8.7037 3.1C8.7037 2.68466 8.82535 2.27865 9.05325 1.9333C9.28115 1.58796 9.60508 1.3188 9.98406 1.15985C10.3631 1.00091 10.7801 0.959323 11.1824 1.04035C11.5847 1.12138 11.9543 1.32139 12.2444 1.61508C12.5344 1.90877 12.732 2.28295 12.812 2.69031C12.892 3.09767 12.851 3.51991 12.694 3.90364C12.537 4.28736 12.2712 4.61534 11.9301 4.84609C11.589 5.07684 11.188 5.2 10.7778 5.2H8.7037M8.7037 5.2V16M1.88889 8.2H16.1111C16.6018 8.2 17 7.7968 17 7.3V6.1C17 5.6032 16.6018 5.2 16.1111 5.2H1.88889C1.39822 5.2 1 5.6032 1 6.1V7.3C1 7.7968 1.39822 8.2 1.88889 8.2Z" stroke="white" stroke-linecap="round" stroke-linejoin="round"/>
</svg>
