<svg width="20" height="19" viewBox="0 0 20 19" fill="none" xmlns="http://www.w3.org/2000/svg">
<path d="M11.9193 8.37029H12.9702C13.2542 8.37029 13.4845 8.60055 13.4845 8.88458V11.1268C13.4845 11.4531 13.7873 11.6963 14.1134 11.7066C14.7163 11.7257 15.4062 11.95 15.6945 12.6632M11.9193 8.37029H10.8996C10.6036 8.37029 10.371 8.621 10.3354 8.91481C10.232 9.76802 9.75755 10.8272 8.37888 10.705C7.08879 10.5907 6.69073 9.71675 6.63361 8.98938C6.60834 8.66766 6.3655 8.37029 6.04279 8.37029H3.93664C3.6526 8.37029 3.42235 8.60055 3.42235 8.88458V11.2451C3.42235 11.5292 3.19198 11.7541 2.90838 11.7698C2.06976 11.8161 1 12.0694 1 13.454C1 15.0887 2.10617 15.3121 2.90839 15.3367C3.19229 15.3454 3.42235 15.5671 3.42235 15.8511V17.9857C3.42235 18.2697 3.6526 18.5 3.93664 18.5H6.04951C6.36999 18.5 6.61094 18.2059 6.64503 17.8872C6.7178 17.2071 7.12543 16.4289 8.37888 16.4289C9.6518 16.4289 10.0957 17.2315 10.1963 17.9188C10.2411 18.2251 10.4786 18.5 10.7881 18.5H12.9702C13.2542 18.5 13.4845 18.2697 13.4845 17.9857V15.9213C13.4845 15.6113 13.759 15.3732 14.0676 15.3439C14.8622 15.2684 15.8323 14.8295 15.8323 13.454C15.8323 13.1402 15.7818 12.8793 15.6945 12.6632M11.9193 8.37029C11.9645 7.61586 11.6245 6.1744 10.0098 5.92284C9.72916 5.87912 9.49689 5.65468 9.49689 5.37065V3.19839C9.49689 2.91435 9.72715 2.6841 10.0112 2.6841H11.9461C12.237 2.6841 12.4678 2.44159 12.511 2.15391C12.6224 1.41247 13.0324 0.5 14.118 0.5C15.213 0.5 15.6523 1.42815 15.7849 2.1729C15.8347 2.45254 16.0626 2.6841 16.3466 2.6841H18.4857C18.7697 2.6841 19 2.91435 19 3.19839V5.33147C19 5.63035 18.7436 5.86395 18.4485 5.91115C17.7632 6.02077 16.9503 6.44096 16.9503 7.5795C16.9503 8.72381 17.7715 9.15756 18.4589 9.2772C18.7497 9.32781 19 9.55997 19 9.85513V12.1489C19 12.4329 18.7697 12.6632 18.4857 12.6632H15.6945" stroke="white"/>
</svg>
